<?xml version="1.0" encoding="UTF-8" standalone="no"?>
<!DOCTYPE svg PUBLIC "-//W3C//DTD SVG 1.1//EN"
 "http://www.w3.org/Graphics/SVG/1.1/DTD/svg11.dtd">
<!-- Generated by graphviz version 2.38.0 (20140413.2041)
 -->
<!-- Title: my_graph Pages: 1 -->
<svg width="102pt" height="332pt"
 viewBox="0.00 0.00 101.53 332.00" xmlns="http://www.w3.org/2000/svg" xmlns:xlink="http://www.w3.org/1999/xlink">
<g id="graph0" class="graph" transform="scale(1 1) rotate(0) translate(4 328)">
<title>my_graph</title>
<polygon fill="white" stroke="none" points="-4,4 -4,-328 97.5271,-328 97.5271,4 -4,4"/>
<!-- 0 -->
<g id="node1" class="node"><title>0</title>
<ellipse fill="none" stroke="black" cx="66.5271" cy="-306" rx="27" ry="18"/>
<text text-anchor="middle" x="66.5271" y="-302.3" font-family="Times New Roman,serif" font-size="14.00">0</text>
</g>
<!-- 1 -->
<g id="node2" class="node"><title>1</title>
<ellipse fill="none" stroke="black" cx="39.5271" cy="-234" rx="27" ry="18"/>
<text text-anchor="middle" x="39.5271" y="-230.3" font-family="Times New Roman,serif" font-size="14.00">1</text>
</g>
<!-- 0&#45;&gt;1 -->
<g id="edge1" class="edge"><title>0&#45;&gt;1</title>
<path fill="none" stroke="black" d="M60.1285,-288.411C57.0135,-280.335 53.1934,-270.431 49.6925,-261.355"/>
<polygon fill="black" stroke="black" points="52.9316,-260.027 46.0673,-251.956 46.4006,-262.546 52.9316,-260.027"/>
</g>
<!-- 4 -->
<g id="node3" class="node"><title>4</title>
<ellipse fill="none" stroke="black" cx="66.5271" cy="-18" rx="27" ry="18"/>
<text text-anchor="middle" x="66.5271" y="-14.3" font-family="Times New Roman,serif" font-size="14.00">4</text>
</g>
<!-- 0&#45;&gt;4 -->
<g id="edge2" class="edge"><title>0&#45;&gt;4</title>
<path fill="none" stroke="black" d="M70.1809,-287.908C72.2029,-277.569 74.5079,-264.09 75.5271,-252 82.2474,-172.283 82.2474,-151.717 75.5271,-72 74.8105,-63.4991 73.4582,-54.3119 72.0155,-46.0122"/>
<polygon fill="black" stroke="black" points="75.4413,-45.2892 70.1809,-36.0925 68.558,-46.5623 75.4413,-45.2892"/>
</g>
<!-- 3 -->
<g id="node4" class="node"><title>3</title>
<ellipse fill="none" stroke="black" cx="39.5271" cy="-90" rx="27" ry="18"/>
<text text-anchor="middle" x="39.5271" y="-86.3" font-family="Times New Roman,serif" font-size="14.00">3</text>
</g>
<!-- 1&#45;&gt;3 -->
<g id="edge3" class="edge"><title>1&#45;&gt;3</title>
<path fill="none" stroke="black" d="M25.7767,-218.069C17.5663,-208.1 7.90811,-194.247 3.52709,-180 -1.1757,-164.707 -1.1757,-159.293 3.52709,-144 6.81286,-133.315 13.067,-122.851 19.4525,-114.081"/>
<polygon fill="black" stroke="black" points="22.4114,-115.977 25.7767,-105.931 16.8811,-111.686 22.4114,-115.977"/>
</g>
<!-- 2 -->
<g id="node5" class="node"><title>2</title>
<ellipse fill="none" stroke="black" cx="39.5271" cy="-162" rx="27" ry="18"/>
<text text-anchor="middle" x="39.5271" y="-158.3" font-family="Times New Roman,serif" font-size="14.00">2</text>
</g>
<!-- 1&#45;&gt;2 -->
<g id="edge4" class="edge"><title>1&#45;&gt;2</title>
<path fill="none" stroke="black" d="M39.5271,-215.697C39.5271,-207.983 39.5271,-198.712 39.5271,-190.112"/>
<polygon fill="black" stroke="black" points="43.0272,-190.104 39.5271,-180.104 36.0272,-190.104 43.0272,-190.104"/>
</g>
<!-- 3&#45;&gt;4 -->
<g id="edge6" class="edge"><title>3&#45;&gt;4</title>
<path fill="none" stroke="black" d="M45.9257,-72.411C49.0407,-64.3352 52.8608,-54.4312 56.3617,-45.3547"/>
<polygon fill="black" stroke="black" points="59.6536,-46.5458 59.9868,-35.9562 53.1225,-44.0267 59.6536,-46.5458"/>
</g>
<!-- 2&#45;&gt;3 -->
<g id="edge5" class="edge"><title>2&#45;&gt;3</title>
<path fill="none" stroke="black" d="M39.5271,-143.697C39.5271,-135.983 39.5271,-126.712 39.5271,-118.112"/>
<polygon fill="black" stroke="black" points="43.0272,-118.104 39.5271,-108.104 36.0272,-118.104 43.0272,-118.104"/>
</g>
</g>
</svg>
